<svg xmlns="http://www.w3.org/2000/svg" width="64" height="64" fill="none"><path fill="#FFF089" d="M27.371 11.102 7.187 23.145c-2.184 1.31-3.585 4.01-3.585 6.576V33.5c0 2.59 1.369 5.184 3.585 6.485L28.46 52.6c2.257 1.325 5.431 1.314 7.675-.034l20.65-12.446c2.18-1.31 3.468-3.894 3.468-6.457l.117-3.908c0-2.638-1.305-5.108-3.586-6.39L34.973 11.034c-2.237-1.258-5.4-1.253-7.602.067Z"/><path fill="#ECB306" d="M56.365 23.02 35.007 11.09a7.78 7.78 0 0 0-7.771.108L7.42 22.996a7.86 7.86 0 0 0-3.818 6.73v3.868a7.86 7.86 0 0 0 3.88 6.766l20.864 12.164a7.8 7.8 0 0 0 3.918 1.059 7.84 7.84 0 0 0 3.984-1.1l20.31-12.116a7.87 7.87 0 0 0 3.813-6.726v-3.785a7.84 7.84 0 0 0-4.006-6.837Zm3.292 7.826-3.464 2.223-20.31 12.117a7.06 7.06 0 0 1-7.178.036L7.84 33.058l-3.526-2.09v-1.242a7.11 7.11 0 0 1 3.47-6.114L27.6 11.813a7.06 7.06 0 0 1 7.06-.098l21.358 11.93a7.11 7.11 0 0 1 3.639 6.212z"/><path fill="#ECB306" fill-rule="evenodd" d="M59.659 29.857a7.11 7.11 0 0 0-3.639-6.212l-21.358-11.93a7.06 7.06 0 0 0-7.06.098L7.787 23.611a7.11 7.11 0 0 0-3.47 6.113v1.242l3.526 2.09 20.864 12.165a7.06 7.06 0 0 0 7.18-.037L56.194 33.07l3.464-2.224v-.988Zm-.604.659v-.66a6.51 6.51 0 0 0-3.33-5.684l-21.357-11.93a6.46 6.46 0 0 0-6.457.09L8.096 24.13a6.51 6.51 0 0 0-3.175 5.594v.898l3.226 1.913.004.002L29.011 44.7a6.46 6.46 0 0 0 6.566-.033l20.3-12.112zm1.318 3.126a7.87 7.87 0 0 1-3.813 6.726L36.25 52.484a7.85 7.85 0 0 1-3.984 1.1 7.8 7.8 0 0 1-3.917-1.06L7.484 40.36a7.86 7.86 0 0 1-3.88-6.766v-3.868a7.86 7.86 0 0 1 3.819-6.73l19.815-11.8a7.78 7.78 0 0 1 7.771-.107l21.359 11.93c2.47 1.38 4.005 4 4.005 6.838zM26.929 10.678a8.38 8.38 0 0 1 8.375-.117l21.358 11.931a8.44 8.44 0 0 1 4.315 7.364v3.785a8.47 8.47 0 0 1-4.108 7.245L36.56 53.003a8.46 8.46 0 0 1-4.294 1.184 8.4 8.4 0 0 1-4.221-1.14L7.18 40.881A8.46 8.46 0 0 1 3 33.594v-3.868a8.47 8.47 0 0 1 4.114-7.249m0 0 19.815-11.8" clip-rule="evenodd"/></svg>